<svg width="80" height="40" viewBox="0 0 80 40" fill="none" xmlns="http://www.w3.org/2000/svg">
<path d="M71.7001 16.725C70.3574 13.9974 67.3761 11.5409 63.1574 9.68587C58.9386 7.83087 53.6848 6.66643 48.1027 6.3492C42.5206 6.03198 36.8781 6.57719 31.9344 7.91149C26.9906 9.24578 22.9828 11.3051 20.4501 13.8125C15.3856 14.0961 10.7285 15.3356 7.43007 17.278C4.13161 19.2204 2.44053 21.7191 2.70218 24.2638C2.96383 26.8086 5.15848 29.2074 8.83794 30.9704C12.5174 32.7334 17.4041 33.7276 22.5001 33.75H57.5001C61.4418 33.7467 65.2937 33.1611 68.5719 32.0667C71.8501 30.9724 74.4084 29.4181 75.9256 27.5991C77.4428 25.7801 77.8511 23.7774 77.0993 21.8428C76.3475 19.9081 74.4692 18.1276 71.7001 16.725Z" fill="#E9F0FF"/>
<path d="M4.9999 25C4.97374 22.5163 6.7972 20.1165 10.1153 18.268C13.4333 16.4195 18.0084 15.2546 22.9499 15C24.8286 13.1346 27.5326 11.5078 30.8565 10.2429C34.1804 8.97798 38.037 8.1083 42.1334 7.69986C46.2299 7.29142 50.4586 7.35495 54.4986 7.88561C58.5387 8.41628 62.2838 9.40014 65.4499 10.7625C62.4542 9.10125 58.6931 7.83048 54.4929 7.06043C50.2927 6.29039 45.7802 6.04433 41.3467 6.34358C36.9133 6.64284 32.6928 7.47838 29.0513 8.77774C25.4098 10.0771 22.4573 11.801 20.4499 13.8C16.5039 14.0041 12.7685 14.7903 9.71859 16.0587C6.66866 17.3271 4.44202 19.0203 3.32179 20.9231C2.20157 22.8259 2.23836 24.8522 3.42751 26.7445C4.61665 28.6368 6.90441 30.3096 9.9999 31.55C6.7951 29.7435 5.01744 27.4148 4.9999 25Z" fill="#5179DA"/>
</svg>
