<svg width="80" height="80" viewBox="0 0 80 80" fill="none" xmlns="http://www.w3.org/2000/svg">
<g clip-path="url(#clip0_130_3627)">
<path d="M40.0034 0C56.5434 0 70.0034 13.46 70.0034 30V76.6667C70.0001 77.3244 69.8027 77.9666 69.4359 78.5126C69.0691 79.0585 68.5492 79.4841 67.9415 79.7358C67.3338 79.9875 66.6653 80.0541 66.0199 79.9274C65.3745 79.8006 64.7808 79.4861 64.3134 79.0233L53.3368 68.0467L42.3601 79.0233C42.0508 79.3332 41.6834 79.5789 41.2791 79.7467C40.8747 79.9144 40.4412 80.0007 40.0034 80.0007C39.5656 80.0007 39.1322 79.9144 38.7278 79.7467C38.3234 79.5789 37.956 79.3332 37.6467 79.0233L26.6701 68.0467L15.6934 79.0233C15.2272 79.4894 14.6334 79.8067 13.9869 79.9353C13.3404 80.0638 12.6702 79.9978 12.0612 79.7456C11.4522 79.4934 10.9317 79.0662 10.5654 78.5182C10.1991 77.9702 10.0036 77.3258 10.0034 76.6667V30C10.0034 13.46 23.4634 0 40.0034 0ZM46.6701 43.3333H56.6701V30H50.0034V36.6667H46.6701V43.3333ZM30.0034 43.3333H40.0034V30H33.3368V36.6667H30.0034V43.3333Z" fill="#0C1A3D"/>
</g>
<defs>
<clipPath id="clip0_130_3627">
<rect width="80" height="80" fill="white" transform="matrix(-1 0 0 1 80 0)"/>
</clipPath>
</defs>
</svg>
