<svg width="36" height="36" viewBox="0 0 36 36" fill="none" xmlns="http://www.w3.org/2000/svg">
<g clip-path="url(#clip0_95_2105)">
<g clip-path="url(#clip1_95_2105)">
<mask id="mask0_95_2105" style="mask-type:luminance" maskUnits="userSpaceOnUse" x="0" y="0" width="36" height="36">
<path d="M32.4878 0H3.5122C1.57246 0 0 1.57246 0 3.5122V32.4878C0 34.4275 1.57246 36 3.5122 36H32.4878C34.4275 36 36 34.4275 36 32.4878V3.5122C36 1.57246 34.4275 0 32.4878 0Z" fill="white"/>
</mask>
<g mask="url(#mask0_95_2105)">
<path d="M32.4878 0H3.5122C1.57246 0 0 1.57246 0 3.5122V32.4878C0 34.4275 1.57246 36 3.5122 36H32.4878C34.4275 36 36 34.4275 36 32.4878V3.5122C36 1.57246 34.4275 0 32.4878 0Z" fill="url(#paint0_linear_95_2105)"/>
<path d="M7.35373 49.1707C14.6883 49.1707 20.6342 43.2248 20.6342 35.8902C20.6342 28.5556 14.6883 22.6097 7.35373 22.6097C0.0191193 22.6097 -5.92676 28.5556 -5.92676 35.8902C-5.92676 43.2248 0.0191193 49.1707 7.35373 49.1707Z" fill="url(#paint1_radial_95_2105)"/>
<path d="M35.2317 13.1707C42.5663 13.1707 48.5121 7.22484 48.5121 -0.109771C48.5121 -7.44438 42.5663 -13.3903 35.2317 -13.3903C27.897 -13.3903 21.9512 -7.44438 21.9512 -0.109771C21.9512 7.22484 27.897 13.1707 35.2317 13.1707Z" fill="url(#paint2_radial_95_2105)"/>
<path d="M18 12.75C18 9.85051 20.3505 7.5 23.2501 7.5C26.1496 7.5 28.5 9.85051 28.5 12.75V18H23.2501C20.3505 18 18 15.6495 18 12.75Z" fill="white"/>
<path d="M6.75 12.75C6.75 9.85051 9.10051 7.5 12 7.5C14.8995 7.5 17.25 9.85051 17.25 12.75C17.25 15.6495 14.8995 18 12 18H6.75V12.75Z" fill="white"/>
<path d="M6.75 18.75H12C14.8995 18.75 17.25 21.1005 17.25 24C17.25 26.8996 14.8995 29.25 12 29.25C9.10051 29.25 6.75 26.8996 6.75 24V18.75Z" fill="white"/>
</g>
</g>
</g>
<defs>
<linearGradient id="paint0_linear_95_2105" x1="2.63415" y1="-8.20339e-07" x2="26.4512" y2="34.4634" gradientUnits="userSpaceOnUse">
<stop stop-color="#3A65FA"/>
<stop offset="1" stop-color="#3898FA"/>
</linearGradient>
<radialGradient id="paint1_radial_95_2105" cx="0" cy="0" r="1" gradientUnits="userSpaceOnUse" gradientTransform="translate(7.35373 35.8902) rotate(90) scale(13.2805)">
<stop stop-color="#7ED5FA"/>
<stop offset="1" stop-color="#7ED5FA" stop-opacity="0"/>
</radialGradient>
<radialGradient id="paint2_radial_95_2105" cx="0" cy="0" r="1" gradientUnits="userSpaceOnUse" gradientTransform="translate(35.2317 -0.109771) rotate(90) scale(13.2805)">
<stop stop-color="#7ED5FA"/>
<stop offset="1" stop-color="#7ED5FA" stop-opacity="0"/>
</radialGradient>
<clipPath id="clip0_95_2105">
<rect width="36" height="36" rx="18" fill="white"/>
</clipPath>
<clipPath id="clip1_95_2105">
<rect width="36" height="36" fill="white"/>
</clipPath>
</defs>
</svg>
