<svg width="164" height="164" viewBox="0 0 164 164" fill="none" xmlns="http://www.w3.org/2000/svg">
<g clip-path="url(#clip0_2008_16909)">
<rect width="164" height="164" rx="16" fill="url(#paint0_linear_2008_16909)"/>
<circle cx="33.5" cy="163.5" r="60.5" fill="url(#paint1_radial_2008_16909)"/>
<circle cx="160.5" cy="-0.5" r="60.5" fill="url(#paint2_radial_2008_16909)"/>
<path d="M84.0154 47.7423C84.0154 29.9354 98.4508 15.5 116.258 15.5V15.5C134.065 15.5 148.5 29.9354 148.5 47.7423V79.9845H116.258C98.4507 79.9845 84.0154 65.5492 84.0154 47.7423V47.7423Z" fill="white"/>
<path d="M15.5 47.7423C15.5 29.9354 29.9354 15.5 47.7423 15.5V15.5C65.5493 15.5 79.9846 29.9354 79.9846 47.7423V47.7423C79.9846 65.5492 65.5493 79.9845 47.7424 79.9845H15.5V47.7423Z" fill="white"/>
<path d="M15.5 84.0154H47.7424C65.5493 84.0154 79.9846 98.4507 79.9846 116.258V116.258C79.9846 134.065 65.5492 148.5 47.7423 148.5V148.5C29.9354 148.5 15.5 134.065 15.5 116.258V84.0154Z" fill="white"/>
</g>
<defs>
<linearGradient id="paint0_linear_2008_16909" x1="12" y1="-1.39762e-06" x2="120.5" y2="157" gradientUnits="userSpaceOnUse">
<stop stop-color="#3A65FA"/>
<stop offset="1" stop-color="#3898FA"/>
</linearGradient>
<radialGradient id="paint1_radial_2008_16909" cx="0" cy="0" r="1" gradientUnits="userSpaceOnUse" gradientTransform="translate(33.5 163.5) rotate(90) scale(60.5)">
<stop stop-color="#7ED5FA"/>
<stop offset="1" stop-color="#7ED5FA" stop-opacity="0"/>
</radialGradient>
<radialGradient id="paint2_radial_2008_16909" cx="0" cy="0" r="1" gradientUnits="userSpaceOnUse" gradientTransform="translate(160.5 -0.5) rotate(90) scale(60.5)">
<stop stop-color="#7ED5FA"/>
<stop offset="1" stop-color="#7ED5FA" stop-opacity="0"/>
</radialGradient>
<clipPath id="clip0_2008_16909">
<rect width="164" height="164" rx="16" fill="white"/>
</clipPath>
</defs>
</svg>
