<svg width="36" height="36" viewBox="0 0 36 36" fill="none" xmlns="http://www.w3.org/2000/svg">
<rect width="36" height="36" fill="#EEEFF0"/>
<g id="Header / Light Mode / Phone Interaction">
<path d="M-627 -868C-627 -869.105 -626.105 -870 -625 -870H1740C1741.1 -870 1742 -869.105 1742 -868V122C1742 123.105 1741.1 124 1740 124H-625C-626.105 124 -627 123.105 -627 122V-868Z" fill="white"/>
<path d="M-625 -870V-869H1740V-870V-871H-625V-870ZM1742 -868H1741V122H1742H1743V-868H1742ZM1740 124V123H-625V124V125H1740V124ZM-627 122H-626V-868H-627H-628V122H-627ZM-625 124V123C-625.552 123 -626 122.552 -626 122H-627H-628C-628 123.657 -626.657 125 -625 125V124ZM1742 122H1741C1741 122.552 1740.55 123 1740 123V124V125C1741.66 125 1743 123.657 1743 122H1742ZM1740 -870V-869C1740.55 -869 1741 -868.552 1741 -868H1742H1743C1743 -869.657 1741.66 -871 1740 -871V-870ZM-625 -870V-871C-626.657 -871 -628 -869.657 -628 -868H-627H-626C-626 -868.552 -625.552 -869 -625 -869V-870Z" fill="black" fill-opacity="0.1"/>
<g id="Header / Light Mode / Menu Expanded / Home Selected" clip-path="url(#clip0_0_1)">
<rect width="402" height="874" transform="translate(-131 -810)" fill="#F9FAFB"/>
<g id="Header">
<g id="Container">
<g id="Nav" filter="url(#filter0_i_0_1)">
<rect x="-131" y="-810" width="402" height="874" fill="#F3F3F4" fill-opacity="0.1"/>
<rect x="-130.5" y="-809.5" width="401" height="873" stroke="#E4E5E7"/>
<g id="Frame 4">
<g id="Frame 2">
<g id="linkedin">
<path id="Vector" d="M30.7048 3H5.29484C5.00921 2.99603 4.72559 3.04837 4.46019 3.15402C4.19479 3.25968 3.9528 3.41658 3.74804 3.61576C3.54328 3.81495 3.37977 4.05252 3.26683 4.31491C3.1539 4.5773 3.09376 4.85936 3.08984 5.145V30.855C3.09376 31.1406 3.1539 31.4227 3.26683 31.6851C3.37977 31.9475 3.54328 32.185 3.74804 32.3842C3.9528 32.5834 4.19479 32.7403 4.46019 32.846C4.72559 32.9516 5.00921 33.004 5.29484 33H30.7048C30.9905 33.004 31.2741 32.9516 31.5395 32.846C31.8049 32.7403 32.0469 32.5834 32.2516 32.3842C32.4564 32.185 32.6199 31.9475 32.7329 31.6851C32.8458 31.4227 32.9059 31.1406 32.9098 30.855V5.145C32.9059 4.85936 32.8458 4.5773 32.7329 4.31491C32.6199 4.05252 32.4564 3.81495 32.2516 3.61576C32.0469 3.41658 31.8049 3.25968 31.5395 3.15402C31.2741 3.04837 30.9905 2.99603 30.7048 3ZM12.1348 28.11H7.63484V14.61H12.1348V28.11ZM9.88484 12.72C9.26424 12.72 8.66905 12.4735 8.23021 12.0346C7.79138 11.5958 7.54484 11.0006 7.54484 10.38C7.54484 9.75939 7.79138 9.1642 8.23021 8.72537C8.66905 8.28653 9.26424 8.04 9.88484 8.04C10.2144 8.00262 10.5481 8.03528 10.8642 8.13582C11.1802 8.23636 11.4715 8.40253 11.7188 8.62344C11.9662 8.84435 12.1641 9.11501 12.2996 9.41772C12.4352 9.72042 12.5052 10.0483 12.5052 10.38C12.5052 10.7117 12.4352 11.0396 12.2996 11.3423C12.1641 11.645 11.9662 11.9156 11.7188 12.1366C11.4715 12.3575 11.1802 12.5236 10.8642 12.6242C10.5481 12.7247 10.2144 12.7574 9.88484 12.72ZM28.3648 28.11H23.8648V20.865C23.8648 19.05 23.2198 17.865 21.5848 17.865C21.0788 17.8687 20.5861 18.0274 20.1731 18.3198C19.7601 18.6121 19.4466 19.024 19.2748 19.5C19.1575 19.8526 19.1066 20.2239 19.1248 20.595V28.095H14.6248C14.6248 28.095 14.6248 15.825 14.6248 14.595H19.1248V16.5C19.5336 15.7907 20.1282 15.2063 20.8445 14.8098C21.5608 14.4133 22.3717 14.2198 23.1898 14.25C26.1898 14.25 28.3648 16.185 28.3648 20.34V28.11Z" fill="#404147"/>
</g>
</g>
</g>
</g>
</g>
</g>
</g>
</g>
<defs>
<filter id="filter0_i_0_1" x="-131" y="-810" width="402" height="876" filterUnits="userSpaceOnUse" color-interpolation-filters="sRGB">
<feFlood flood-opacity="0" result="BackgroundImageFix"/>
<feBlend mode="normal" in="SourceGraphic" in2="BackgroundImageFix" result="shape"/>
<feColorMatrix in="SourceAlpha" type="matrix" values="0 0 0 0 0 0 0 0 0 0 0 0 0 0 0 0 0 0 127 0" result="hardAlpha"/>
<feOffset dy="2"/>
<feGaussianBlur stdDeviation="1.5"/>
<feComposite in2="hardAlpha" operator="arithmetic" k2="-1" k3="1"/>
<feColorMatrix type="matrix" values="0 0 0 0 1 0 0 0 0 1 0 0 0 0 1 0 0 0 0.45 0"/>
<feBlend mode="normal" in2="shape" result="effect1_innerShadow_0_1"/>
</filter>
<clipPath id="clip0_0_1">
<rect width="402" height="874" fill="white" transform="translate(-131 -810)"/>
</clipPath>
</defs>
</svg>
