<svg width="36" height="36" viewBox="0 0 36 36" fill="none" xmlns="http://www.w3.org/2000/svg">
<path d="M18 3C15.0333 3 12.1332 3.87973 9.66645 5.52796C7.19972 7.17618 5.27713 9.51886 4.14181 12.2597C3.0065 15.0006 2.70945 18.0166 3.28823 20.9264C3.86701 23.8361 5.29562 26.5088 7.39341 28.6066C9.49119 30.7044 12.1639 32.133 15.0737 32.7118C17.9834 33.2906 20.9994 32.9935 23.7403 31.8582C26.4812 30.7229 28.8238 28.8003 30.4721 26.3336C32.1203 23.8668 33 20.9667 33 18C33 16.0302 32.612 14.0796 31.8582 12.2597C31.1044 10.4399 29.9995 8.78628 28.6066 7.3934C27.2137 6.00052 25.5601 4.89563 23.7403 4.14181C21.9204 3.38799 19.9698 3 18 3ZM18 6C21.0821 5.99877 24.0447 7.1924 26.265 9.33C23.973 10.6743 21.5443 11.7705 19.02 12.6C17.7637 10.4352 16.3234 8.38266 14.715 6.465C15.783 6.1575 16.8887 6.00098 18 6ZM11.835 7.725C13.4065 9.52276 14.817 11.4552 16.05 13.5C13.1057 14.2311 10.0838 14.6038 7.05001 14.61H6.51001C7.36081 11.7295 9.26091 9.27271 11.835 7.725ZM9.00001 25.965C7.04814 23.7731 5.97913 20.9349 6.00001 18C6.00001 17.85 6.00001 17.7 6.00001 17.565H7.02001C10.5711 17.5333 14.1021 17.0288 17.52 16.065C18 16.98 18.45 17.925 18.885 18.9C16.5472 19.7241 14.37 20.9472 12.45 22.515L12 22.875C10.9307 23.8354 9.92834 24.8678 9.00001 25.965ZM18 30C15.6091 30.0053 13.2723 29.2891 11.295 27.945C12.0253 27.1074 12.8068 26.3159 13.635 25.575L14.115 25.17C15.8898 23.6773 17.9235 22.5232 20.115 21.765C21.017 24.204 21.7193 26.7122 22.215 29.265C20.8647 29.758 19.4375 30.0069 18 30ZM24.945 27.765C24.4543 25.4948 23.8128 23.2599 23.025 21.075H23.535C23.5941 21.0604 23.6559 21.0604 23.715 21.075H23.88H24.03H24.75C26.3285 21.0795 27.8952 21.3482 29.385 21.87C28.5665 24.2555 27.0118 26.3197 24.945 27.765ZM24.75 18C24.435 18 24.12 18 23.82 18C23.6258 17.9755 23.4292 17.9755 23.235 18C22.8273 18.025 22.4216 18.0751 22.02 18.15H21.87C21.435 17.145 20.985 16.17 20.49 15.15C23.1759 14.2276 25.7556 13.0207 28.185 11.55C29.3902 13.4841 30.0197 15.7213 30 18C30 18.255 30 18.51 30 18.765C28.3 18.2403 26.529 17.9823 24.75 18Z" fill="currentColor"/>
</svg>
