<svg width="36" height="36" viewBox="0 0 36 36" fill="none" xmlns="http://www.w3.org/2000/svg">
<rect width="36" height="36" fill="#EEEFF0"/>
<g id="Header / Light Mode / Phone Interaction">
<path d="M-679 -868C-679 -869.105 -678.105 -870 -677 -870H1688C1689.1 -870 1690 -869.105 1690 -868V122C1690 123.105 1689.1 124 1688 124H-677C-678.105 124 -679 123.105 -679 122V-868Z" fill="white"/>
<path d="M-677 -870V-869H1688V-870V-871H-677V-870ZM1690 -868H1689V122H1690H1691V-868H1690ZM1688 124V123H-677V124V125H1688V124ZM-679 122H-678V-868H-679H-680V122H-679ZM-677 124V123C-677.552 123 -678 122.552 -678 122H-679H-680C-680 123.657 -678.657 125 -677 125V124ZM1690 122H1689C1689 122.552 1688.55 123 1688 123V124V125C1689.66 125 1691 123.657 1691 122H1690ZM1688 -870V-869C1688.55 -869 1689 -868.552 1689 -868H1690H1691C1691 -869.657 1689.66 -871 1688 -871V-870ZM-677 -870V-871C-678.657 -871 -680 -869.657 -680 -868H-679H-678C-678 -868.552 -677.552 -869 -677 -869V-870Z" fill="black" fill-opacity="0.1"/>
<g id="Header / Light Mode / Menu Expanded / Home Selected" clip-path="url(#clip0_0_1)">
<rect width="402" height="874" transform="translate(-183 -810)" fill="#F9FAFB"/>
<g id="Header">
<g id="Container">
<g id="Nav" filter="url(#filter0_i_0_1)">
<rect x="-183" y="-810" width="402" height="874" fill="#F3F3F4" fill-opacity="0.1"/>
<rect x="-182.5" y="-809.5" width="401" height="873" stroke="#E4E5E7"/>
<g id="Frame 4">
<g id="Frame 2">
<g id="youtube">
<path id="Vector" d="M34.5 14.565C34.5742 12.418 34.1047 10.287 33.135 8.37C32.4771 7.5834 31.5641 7.05256 30.555 6.87C26.3813 6.49129 22.1903 6.33607 18 6.405C13.825 6.33294 9.6491 6.48315 5.49004 6.855C4.66777 7.00457 3.90682 7.39026 3.30004 7.965C1.95004 9.21 1.80004 11.34 1.65004 13.14C1.43241 16.3763 1.43241 19.6237 1.65004 22.86C1.69344 23.8731 1.84428 24.8787 2.10004 25.86C2.2809 26.6176 2.64682 27.3185 3.16504 27.9C3.77594 28.5052 4.55462 28.9128 5.40004 29.07C8.63391 29.4692 11.8924 29.6346 15.15 29.565C20.4 29.64 25.005 29.565 30.45 29.145C31.3162 28.9975 32.1168 28.5893 32.745 27.975C33.165 27.5549 33.4787 27.0406 33.66 26.475C34.1965 24.8289 34.46 23.1062 34.44 21.375C34.5 20.535 34.5 15.465 34.5 14.565ZM14.61 22.275V12.99L23.49 17.655C21 19.035 17.715 20.595 14.61 22.275Z" fill="#404147"/>
</g>
</g>
</g>
</g>
</g>
</g>
</g>
</g>
<defs>
<filter id="filter0_i_0_1" x="-183" y="-810" width="402" height="876" filterUnits="userSpaceOnUse" color-interpolation-filters="sRGB">
<feFlood flood-opacity="0" result="BackgroundImageFix"/>
<feBlend mode="normal" in="SourceGraphic" in2="BackgroundImageFix" result="shape"/>
<feColorMatrix in="SourceAlpha" type="matrix" values="0 0 0 0 0 0 0 0 0 0 0 0 0 0 0 0 0 0 127 0" result="hardAlpha"/>
<feOffset dy="2"/>
<feGaussianBlur stdDeviation="1.5"/>
<feComposite in2="hardAlpha" operator="arithmetic" k2="-1" k3="1"/>
<feColorMatrix type="matrix" values="0 0 0 0 1 0 0 0 0 1 0 0 0 0 1 0 0 0 0.45 0"/>
<feBlend mode="normal" in2="shape" result="effect1_innerShadow_0_1"/>
</filter>
<clipPath id="clip0_0_1">
<rect width="402" height="874" fill="white" transform="translate(-183 -810)"/>
</clipPath>
</defs>
</svg>
