<svg width="36" height="36" viewBox="0 0 36 36" fill="none" xmlns="http://www.w3.org/2000/svg">
<path d="M19.125 18C19.125 23.2728 15.0877 27.5625 10.125 27.5625C5.16234 27.5625 1.125 23.2728 1.125 18C1.125 12.7272 5.16234 8.4375 10.125 8.4375C15.0877 8.4375 19.125 12.7273 19.125 18ZM25.875 9C25.0759 9 23.5688 9.38823 22.4545 11.9884C21.7584 13.6126 21.375 15.7477 21.375 18C21.375 20.2523 21.7584 22.3874 22.4545 24.0116C23.5688 26.6118 25.0759 27 25.875 27C26.6741 27 28.1812 26.6118 29.2955 24.0116C29.9916 22.3874 30.375 20.2523 30.375 18C30.375 15.7477 29.9916 13.6126 29.2955 11.9884C28.1812 9.38823 26.6741 9 25.875 9ZM33.75 9C33.4516 9.00001 33.1655 9.11855 32.9545 9.32952C32.7435 9.5405 32.625 9.82664 32.625 10.125V25.875C32.625 26.1734 32.7435 26.4595 32.9545 26.6705C33.1655 26.8815 33.4516 27 33.75 27C34.0484 27 34.3345 26.8815 34.5455 26.6705C34.7565 26.4595 34.875 26.1734 34.875 25.875V10.125C34.875 9.82664 34.7565 9.5405 34.5455 9.32952C34.3345 9.11855 34.0484 9.00001 33.75 9Z" fill="currentColor"/>
</svg>
