<svg width="36" height="36" viewBox="0 0 36 36" fill="none" xmlns="http://www.w3.org/2000/svg">
<rect width="36" height="36" fill="#EEEFF0"/>
<g id="Header / Light Mode / Phone Interaction">
<path d="M-575 -868C-575 -869.105 -574.105 -870 -573 -870H1792C1793.1 -870 1794 -869.105 1794 -868V122C1794 123.105 1793.1 124 1792 124H-573C-574.105 124 -575 123.105 -575 122V-868Z" fill="white"/>
<path d="M-573 -870V-869H1792V-870V-871H-573V-870ZM1794 -868H1793V122H1794H1795V-868H1794ZM1792 124V123H-573V124V125H1792V124ZM-575 122H-574V-868H-575H-576V122H-575ZM-573 124V123C-573.552 123 -574 122.552 -574 122H-575H-576C-576 123.657 -574.657 125 -573 125V124ZM1794 122H1793C1793 122.552 1792.55 123 1792 123V124V125C1793.66 125 1795 123.657 1795 122H1794ZM1792 -870V-869C1792.55 -869 1793 -868.552 1793 -868H1794H1795C1795 -869.657 1793.66 -871 1792 -871V-870ZM-573 -870V-871C-574.657 -871 -576 -869.657 -576 -868H-575H-574C-574 -868.552 -573.552 -869 -573 -869V-870Z" fill="black" fill-opacity="0.1"/>
<g id="Header / Light Mode / Menu Expanded / Home Selected" clip-path="url(#clip0_0_1)">
<rect width="402" height="874" transform="translate(-79 -810)" fill="#F9FAFB"/>
<g id="Header">
<g id="Container">
<g id="Nav" filter="url(#filter0_i_0_1)">
<rect x="-79" y="-810" width="402" height="874" fill="#F3F3F4" fill-opacity="0.1"/>
<rect x="-78.5" y="-809.5" width="401" height="873" stroke="#E4E5E7"/>
<g id="Frame 4">
<g id="Frame 2">
<g id="whatsapp">
<path id="Vector" d="M24.9 21C24.6 20.85 22.65 19.95 22.35 19.8C22.05 19.65 21.75 19.65 21.45 19.95C21.15 20.25 20.55 21.15 20.25 21.45C20.1 21.75 19.8 21.75 19.5 21.6C18.45 21.15 17.4 20.55 16.5 19.8C15.75 19.05 15 18.15 14.4 17.25C14.25 16.95 14.4 16.65 14.55 16.5C14.7 16.35 14.85 16.05 15.15 15.9C15.3 15.75 15.45 15.45 15.45 15.3C15.6 15.15 15.6 14.85 15.45 14.7C15.3 14.55 14.55 12.75 14.25 12C14.1 10.95 13.8 10.95 13.5 10.95H12.75C12.45 10.95 12 11.25 11.85 11.4C10.95 12.3 10.5 13.35 10.5 14.55C10.65 15.9 11.1 17.25 12 18.45C13.65 20.85 15.75 22.8 18.3 24C19.05 24.3 19.65 24.6 20.4 24.75C21.15 25.05 21.9 25.05 22.8 24.9C23.85 24.75 24.75 24 25.35 23.1C25.65 22.5 25.65 21.9 25.5 21.3L24.9 21ZM28.65 7.35C22.8 1.5 13.35 1.5 7.5 7.35C2.7 12.15 1.8 19.5 5.1 25.35L3 33L10.95 30.9C13.2 32.1 15.6 32.7 18 32.7C26.25 32.7 32.85 26.1 32.85 17.85C33 13.95 31.35 10.2 28.65 7.35ZM24.6 28.35C22.65 29.55 20.4 30.3 18 30.3C15.75 30.3 13.65 29.7 11.7 28.65L11.25 28.35L6.6 29.55L7.8 25.05L7.5 24.6C3.9 18.6 5.7 11.1 11.55 7.35C17.4 3.6 24.9 5.55 28.5 11.25C32.1 17.1 30.45 24.75 24.6 28.35Z" fill="#404147"/>
</g>
</g>
</g>
</g>
</g>
</g>
</g>
</g>
<defs>
<filter id="filter0_i_0_1" x="-79" y="-810" width="402" height="876" filterUnits="userSpaceOnUse" color-interpolation-filters="sRGB">
<feFlood flood-opacity="0" result="BackgroundImageFix"/>
<feBlend mode="normal" in="SourceGraphic" in2="BackgroundImageFix" result="shape"/>
<feColorMatrix in="SourceAlpha" type="matrix" values="0 0 0 0 0 0 0 0 0 0 0 0 0 0 0 0 0 0 127 0" result="hardAlpha"/>
<feOffset dy="2"/>
<feGaussianBlur stdDeviation="1.5"/>
<feComposite in2="hardAlpha" operator="arithmetic" k2="-1" k3="1"/>
<feColorMatrix type="matrix" values="0 0 0 0 1 0 0 0 0 1 0 0 0 0 1 0 0 0 0.45 0"/>
<feBlend mode="normal" in2="shape" result="effect1_innerShadow_0_1"/>
</filter>
<clipPath id="clip0_0_1">
<rect width="402" height="874" fill="white" transform="translate(-79 -810)"/>
</clipPath>
</defs>
</svg>
