<svg width="36" height="36" viewBox="0 0 36 36" fill="none" xmlns="http://www.w3.org/2000/svg">
<path d="M34.4995 14.565C34.5737 12.418 34.1042 10.287 33.1346 8.37C32.4767 7.5834 31.5636 7.05256 30.5546 6.87C26.3808 6.49129 22.1898 6.33607 17.9996 6.405C13.8245 6.33294 9.64861 6.48315 5.48955 6.855C4.66728 7.00457 3.90633 7.39026 3.29955 7.965C1.94955 9.21 1.79955 11.34 1.64955 13.14C1.43192 16.3763 1.43192 19.6237 1.64955 22.86C1.69295 23.8731 1.84379 24.8787 2.09955 25.86C2.28041 26.6176 2.64634 27.3185 3.16455 27.9C3.77545 28.5052 4.55413 28.9128 5.39955 29.07C8.63343 29.4692 11.8919 29.6346 15.1496 29.565C20.3996 29.64 25.0046 29.565 30.4496 29.145C31.3157 28.9975 32.1163 28.5893 32.7446 27.975C33.1645 27.5549 33.4782 27.0406 33.6596 26.475C34.196 24.8289 34.4595 23.1062 34.4396 21.375C34.4995 20.535 34.4995 15.465 34.4995 14.565ZM14.6096 22.275V12.99L23.4896 17.655C20.9996 19.035 17.7146 20.595 14.6096 22.275Z" fill="currentColor"/>
</svg>
